HIERARCHY
ROOT hip
{
  OFFSET 0 0 0
  CHANNELS 6 Xposition Yposition Zposition Zrotation Yrotation Xrotation
  JOINT abdomen
  {
    OFFSET 0 20.6881 -0.73152
    CHANNELS 3 Zrotation Xrotation Yrotation
    JOINT chest
    {
      OFFSET 0 11.7043 -0.48768
      CHANNELS 3 Zrotation Xrotation Yrotation
      JOINT neck
      {
        OFFSET 0 22.1894 -2.19456
        CHANNELS 3 Zrotation Xrotation Yrotation
        JOINT head
        {
          OFFSET -0.24384 7.07133 1.2192
          CHANNELS 3 Zrotation Xrotation Yrotation
          JOINT leftEye
          {
            OFFSET 4.14528 8.04674 8.04672
            CHANNELS 3 Zrotation Xrotation Yrotation
            End Site
            {
              OFFSET 1 0 0
            }
          }
          JOINT rightEye
          {
            OFFSET -3.6576 8.04674 8.04672
            CHANNELS 3 Zrotation Xrotation Yrotation
            End Site
            {
              OFFSET 1 0 0
            }
          }
        }
      }
      JOINT rCollar
      {
        OFFSET -2.68224 19.2634 -4.8768
        CHANNELS 3 Zrotation Xrotation Yrotation
        JOINT rShldr
        {
          OFFSET -8.77824 -1.95073 1.46304
          CHANNELS 3 Zrotation Xrotation Yrotation
          JOINT rForeArm
          {
            OFFSET -28.1742 -1.7115 0.48768
            CHANNELS 3 Zrotation Xrotation Yrotation
            JOINT rHand
            {
              OFFSET -22.5879 0.773209 7.07136
              CHANNELS 3 Zrotation Xrotation Yrotation
              JOINT rThumb1
              {
                OFFSET -1.2192 -0.487915 3.41376
                CHANNELS 3 Zrotation Xrotation Yrotation
                JOINT rThumb2
                {
                  OFFSET -3.37035 -0.52449 3.41376
                  CHANNELS 3 Zrotation Xrotation Yrotation
                  End Site
                  {
                    OFFSET -1.78271 -1.18214 1.43049
                  }
                }
              }
              JOINT rIndex1
              {
                OFFSET -7.75947 0.938293 5.60832
                CHANNELS 3 Zrotation Xrotation Yrotation
                JOINT rIndex2
                {
                  OFFSET -2.54057 -0.884171 1.56538
                  CHANNELS 3 Zrotation Xrotation Yrotation
                  End Site
                  {
                    OFFSET -1.62519 -0.234802 1.16502
                  }
                }
              }
              JOINT rMid1
              {
                OFFSET -8.24714 1.18213 3.41376
                CHANNELS 3 Zrotation Xrotation Yrotation
                JOINT rMid2
                {
                  OFFSET -3.10165 -0.590103 1.0647
                  CHANNELS 3 Zrotation Xrotation Yrotation
                  End Site
                  {
                    OFFSET -2.48547 -0.328903 0.83742
                  }
                }
              }
              JOINT rRing1
              {
                OFFSET -8.82822 0.546677 1.51678
                CHANNELS 3 Zrotation Xrotation Yrotation
                JOINT rRing2
                {
                  OFFSET -2.60934 -0.819778 -0.0198488
                  CHANNELS 3 Zrotation Xrotation Yrotation
                  End Site
                  {
                    OFFSET -2.33842 -0.294052 0.168128
                  }
                }
              }
              JOINT rPinky1
              {
                OFFSET -8.27202 -0.0477905 -0.4584
                CHANNELS 3 Zrotation Xrotation Yrotation
                JOINT rPinky2
                {
                  OFFSET -1.82734 -0.647385 -0.700984
                  CHANNELS 3 Zrotation Xrotation Yrotation
                  End Site
                  {
                    OFFSET -1.69225 -0.51767 -0.607171
                  }
                }
              }
            }
          }
        }
      }
      JOINT lCollar
      {
        OFFSET 2.68224 19.2634 -4.8768
        CHANNELS 3 Zrotation Xrotation Yrotation
        JOINT lShldr
        {
          OFFSET 8.77824 -1.95073 1.46304
          CHANNELS 3 Zrotation Xrotation Yrotation
          JOINT lForeArm
          {
            OFFSET 28.1742 -1.7115 0.48768
            CHANNELS 3 Zrotation Xrotation Yrotation
            JOINT lHand
            {
              OFFSET 22.5879 0.773209 7.07136
              CHANNELS 3 Zrotation Xrotation Yrotation
              JOINT lThumb1
              {
                OFFSET 1.2192 -0.487915 3.41376
                CHANNELS 3 Zrotation Xrotation Yrotation
                JOINT lThumb2
                {
                  OFFSET 3.37035 -0.52449 3.41376
                  CHANNELS 3 Zrotation Xrotation Yrotation
                  End Site
                  {
                    OFFSET 1.78271 -1.18214 1.43049
                  }
                }
              }
              JOINT lIndex1
              {
                OFFSET 7.75947 0.938293 5.60832
                CHANNELS 3 Zrotation Xrotation Yrotation
                JOINT lIndex2
                {
                  OFFSET 2.54057 -0.884171 1.56538
                  CHANNELS 3 Zrotation Xrotation Yrotation
                  End Site
                  {
                    OFFSET 1.62519 -0.234802 1.16502
                  }
                }
              }
              JOINT lMid1
              {
                OFFSET 8.24714 1.18213 3.41376
                CHANNELS 3 Zrotation Xrotation Yrotation
                JOINT lMid2
                {
                  OFFSET 3.10165 -0.590103 1.0647
                  CHANNELS 3 Zrotation Xrotation Yrotation
                  End Site
                  {
                    OFFSET 2.48547 -0.328903 0.83742
                  }
                }
              }
              JOINT lRing1
              {
                OFFSET 8.82822 0.546677 1.51678
                CHANNELS 3 Zrotation Xrotation Yrotation
                JOINT lRing2
                {
                  OFFSET 2.60934 -0.819778 -0.0198488
                  CHANNELS 3 Zrotation Xrotation Yrotation
                  End Site
                  {
                    OFFSET 2.33842 -0.294052 0.168128
                  }
                }
              }
              JOINT lPinky1
              {
                OFFSET 8.27202 -0.0477905 -0.4584
                CHANNELS 3 Zrotation Xrotation Yrotation
                JOINT lPinky2
                {
                  OFFSET 1.82734 -0.647385 -0.700984
                  CHANNELS 3 Zrotation Xrotation Yrotation
                  End Site
                  {
                    OFFSET 1.69225 -0.51767 -0.607171
                  }
                }
              }
            }
          }
        }
      }
    }
  }
  JOINT rButtock
  {
    OFFSET -8.77824 4.35084 1.2192
    CHANNELS 3 Zrotation Xrotation Yrotation
    JOINT rThigh
    {
      OFFSET 0 -1.70687 -2.19456
      CHANNELS 3 Zrotation Xrotation Yrotation
      JOINT rShin
      {
        OFFSET 0 -36.8199 0.73152
        CHANNELS 3 Zrotation Xrotation Yrotation
        JOINT rFoot
        {
          OFFSET 0.73152 -45.1104 -5.12064
          CHANNELS 3 Zrotation Xrotation Yrotation
          End Site
          {
            OFFSET -1.1221 -3.69964 12.103
          }
        }
      }
    }
  }
  JOINT lButtock
  {
    OFFSET 8.77824 4.35084 1.2192
    CHANNELS 3 Zrotation Xrotation Yrotation
    JOINT lThigh
    {
      OFFSET 0 -1.70687 -2.19456
      CHANNELS 3 Zrotation Xrotation Yrotation
      JOINT lShin
      {
        OFFSET 0 -36.8199 0.73152
        CHANNELS 3 Zrotation Xrotation Yrotation
        JOINT lFoot
        {
          OFFSET -0.73152 -45.1104 -5.12064
          CHANNELS 3 Zrotation Xrotation Yrotation
          End Site
          {
            OFFSET 1.1221 -3.69964 12.103
          }
        }
      }
    }
  }
}
MOTION
Frames:	8
Frame Time:	0.00833333
18.4274 83.2942 9.15977 -1.7081 -51.3282 4.6338 4.4664 5.27714 4.09575 1.42997 -3.03065 1.22906 -10.4479 1.55907 -4.12681 10.1007 1.13381 -5.88244 -0.0 0.0 0.0 -0.0 0.0 0.0 -2.25303e-14 -5.53032e-14 1.58127e-13 78.756 12.467 2.64298 -13.8483 -6.83686 25.2412 -0.0715162 7.65901 1.08276 -8.02772e-10 1.51236e-09 1.04529e-09 -1.38952e-09 2.61777e-09 1.80456e-09 -8.02772e-10 1.51236e-09 1.04528e-09 7.73091 5.47488 0.417314 -8.0277e-10 1.51235e-09 1.04529e-09 2.90554 0.965183 0.102902 -8.02764e-10 1.51235e-09 1.04529e-09 10.2786 0.731801 0.0259123 -8.02771e-10 1.51236e-09 1.04529e-09 2.22167 -0.733487 -0.20892 -2.25859e-14 -5.5309e-14 1.5786e-13 -83.2061 11.4441 -1.52269 12.2853 -5.65111 -22.1626 0.0981179 8.90753 -1.26213 -3.49756e-10 1.35966e-09 4.83419e-10 -6.0186e-10 2.35589e-09 8.36345e-10 -3.49758e-10 1.35967e-09 4.83454e-10 -7.73091 5.47488 -0.417314 -3.49754e-10 1.35967e-09 4.83425e-10 -2.90554 0.965183 -0.102902 -3.49763e-10 1.35965e-09 4.83417e-10 -10.2786 0.731801 -0.0259123 -3.4975e-10 1.35966e-09 4.8341e-10 -2.22167 -0.733487 0.20892 -2.03217e-16 0.0 -3.88251e-19 7.63469 8.3941 7.11516 -0.0393271 18.3803 0.429045 -0.035289 -8.75344 2.50544 2.03217e-16 0.0 3.88251e-19 -0.155954 -31.3598 -7.24546 0.115474 22.341 -0.249427 0.284644 0.0867743 -2.74643
17.9261 83.3716 9.92218 -0.8358 -51.5923 3.8417 3.51088 5.10121 4.36986 1.67561 -3.01065 1.29696 -10.6636 1.85025 -4.13789 10.3951 1.12236 -5.91067 -0.0 0.0 0.0 -0.0 0.0 0.0 6.82927e-14 5.59845e-14 -7.99096e-13 78.9469 11.5926 2.34449 -13.5036 -6.56386 24.5543 -0.0880344 8.47504 1.19981 4.3753e-09 -4.68673e-09 -7.3883e-10 7.55248e-09 -8.11883e-09 -1.32614e-09 4.3753e-09 -4.68673e-09 -7.38837e-10 7.73091 5.47488 0.417314 4.3753e-09 -4.68673e-09 -7.38824e-10 2.90554 0.965183 0.102902 4.3753e-09 -4.68673e-09 -7.38827e-10 10.2786 0.731801 0.0259123 4.3753e-09 -4.68673e-09 -7.38824e-10 2.22167 -0.733487 -0.20892 6.82074e-14 5.59746e-14 -7.99353e-13 -83.2678 11.3001 -1.32413 12.1832 -5.57823 -21.9647 0.105474 9.22777 -1.30831 4.48058e-09 -5.53827e-09 -2.28378e-09 7.72481e-09 -9.65142e-09 -3.99439e-09 4.48057e-09 -5.53827e-09 -2.28375e-09 -7.73091 5.47488 -0.417314 4.48058e-09 -5.53826e-09 -2.28378e-09 -2.90554 0.965183 -0.102902 4.48057e-09 -5.53828e-09 -2.28379e-09 -10.2786 0.731801 -0.0259123 4.48058e-09 -5.53826e-09 -2.28379e-09 -2.22167 -0.733487 0.20892 -2.03217e-16 0.0 -3.88251e-19 6.81919 7.84075 7.53212 -0.0589081 20.3059 0.433832 0.04303 -8.04062 2.99716 2.03217e-16 0.0 3.88251e-19 -0.755895 -30.9002 -6.85804 0.116471 22.3479 -0.221879 0.317256 1.13492 -3.04211
17.403 83.4261 10.6707 -0.1067 -51.8529 3.1211 2.82489 4.98055 4.52835 1.82297 -2.9956 1.33186 -10.805 2.01712 -4.14217 10.5733 1.17291 -5.92529 -0.0 0.0 0.0 -0.0 0.0 0.0 1.23597e-13 1.21214e-13 -1.30393e-12 79.1338 10.7751 2.03883 -13.2052 -6.33063 23.9682 -0.104188 9.16702 1.29956 6.95172e-09 -8.00427e-09 -1.67548e-09 1.20026e-08 -1.38643e-08 -2.9671e-09 6.95172e-09 -8.00427e-09 -1.67549e-09 7.73091 5.47488 0.417314 6.95172e-09 -8.00427e-09 -1.67548e-09 2.90554 0.965183 0.102902 6.95173e-09 -8.00427e-09 -1.67548e-09 10.2786 0.731801 0.0259123 6.95172e-09 -8.00427e-09 -1.67548e-09 2.22167 -0.733487 -0.20892 1.23501e-13 1.21204e-13 -1.30418e-12 -83.3282 11.087 -1.16999 12.0939 -5.51473 -21.7918 0.112315 9.51382 -1.34963 6.87e-09 -9.34757e-09 -3.91101e-09 1.18418e-08 -1.62785e-08 -6.83021e-09 6.86998e-09 -9.34758e-09 -3.91098e-09 -7.73091 5.47488 -0.417314 6.87e-09 -9.34756e-09 -3.911e-09 -2.90554 0.965183 -0.102902 6.86999e-09 -9.34758e-09 -3.91101e-09 -10.2786 0.731801 -0.0259123 6.87e-09 -9.34756e-09 -3.91101e-09 -2.22167 -0.733487 0.20892 -2.03217e-16 0.0 -3.88251e-19 6.19072 7.15081 7.67137 -0.0808245 22.3492 0.441909 0.111275 -7.03753 3.56901 2.03217e-16 0.0 3.88251e-19 -1.20866 -30.4678 -6.45409 0.118407 22.4545 -0.195454 0.338229 1.84705 -3.41514
16.9103 83.4709 11.487 0.5368 -51.892 2.4644 2.55118 4.92523 4.52147 1.83053 -3.00224 1.32033 -10.8433 2.01727 -4.13999 10.5794 1.32941 -5.93044 -0.0 0.0 0.0 -0.0 0.0 0.0 1.27307e-13 1.18332e-13 -1.11966e-12 79.317 9.98921 1.69861 -12.9687 -6.14966 23.5049 -0.118107 9.72821 1.38071 5.44673e-09 -6.8734e-09 -1.29247e-09 9.40609e-09 -1.19043e-08 -2.2875e-09 5.44673e-09 -6.8734e-09 -1.29248e-09 7.73091 5.47488 0.417314 5.44673e-09 -6.8734e-09 -1.29247e-09 2.90554 0.965183 0.102902 5.44674e-09 -6.8734e-09 -1.29247e-09 10.2786 0.731801 0.0259123 5.44673e-09 -6.8734e-09 -1.29247e-09 2.22167 -0.733487 -0.20892 1.27237e-13 1.18326e-13 -1.1199e-12 -83.3975 10.7487 -1.06823 12.0218 -5.46393 -21.6522 0.118943 9.78915 -1.38945 5.42301e-09 -8.43502e-09 -3.83037e-09 9.34158e-09 -1.46789e-08 -6.67538e-09 5.42299e-09 -8.43503e-09 -3.83036e-09 -7.73091 5.47488 -0.417314 5.42301e-09 -8.43501e-09 -3.83037e-09 -2.90554 0.965183 -0.102902 5.423e-09 -8.43503e-09 -3.83038e-09 -10.2786 0.731801 -0.0259123 5.42301e-09 -8.43501e-09 -3.83038e-09 -2.22167 -0.733487 0.20892 -2.03217e-16 0.0 -3.88251e-19 5.84251 6.29966 7.39695 -0.106205 24.5326 0.453019 0.159691 -5.71844 4.25543 2.03217e-16 0.0 3.88251e-19 -1.43259 -30.1004 -6.02132 0.121777 22.7167 -0.170866 0.336398 2.1381 -3.89842
16.4315 83.5023 12.1573 0.4298 -51.7781 2.5534 2.51557 4.91053 4.40417 1.75527 -3.02407 1.27736 -10.8312 1.91745 -4.13646 10.4896 1.55255 -5.93238 -0.0 0.0 0.0 -0.0 0.0 0.0 1.0308e-13 7.9908e-14 -5.32392e-13 79.4995 9.21414 1.33454 -12.7732 -6.00443 23.1198 -0.129591 10.1938 1.44816 1.50548e-09 -3.14447e-09 -1.63174e-10 2.60362e-09 -5.44392e-09 -2.93855e-10 1.50548e-09 -3.14446e-09 -1.63185e-10 7.73091 5.47488 0.417314 1.50548e-09 -3.14447e-09 -1.63171e-10 2.90554 0.965183 0.102902 1.50549e-09 -3.14447e-09 -1.63175e-10 10.2786 0.731801 0.0259123 1.50548e-09 -3.14447e-09 -1.63171e-10 2.22167 -0.733487 -0.20892 1.03057e-13 7.99105e-14 -5.32634e-13 -83.4765 10.3097 -0.993289 11.9547 -5.41691 -21.5223 0.126225 10.0824 -1.43192 1.67966e-09 -4.78824e-09 -2.76627e-09 2.88027e-09 -8.31436e-09 -4.79741e-09 1.67965e-09 -4.78825e-09 -2.76625e-09 -7.73091 5.47488 -0.417314 1.67966e-09 -4.78824e-09 -2.76626e-09 -2.90554 0.965183 -0.102902 1.67965e-09 -4.78825e-09 -2.76627e-09 -10.2786 0.731801 -0.0259123 1.67966e-09 -4.78824e-09 -2.76627e-09 -2.22167 -0.733487 0.20892 -2.03217e-16 0.0 -3.88251e-19 5.63501 5.30339 6.84586 -0.135464 26.8642 0.46686 0.171369 -4.1391 5.04251 2.03217e-16 0.0 3.88251e-19 -1.51479 -29.7688 -5.50388 0.125895 23.0716 -0.146395 0.315604 2.14465 -4.43101
15.9722 83.5171 12.7076 0.152 -51.6268 2.7625 2.52455 4.93232 4.24739 1.64799 -3.02832 1.22197 -10.794 1.76303 -4.12679 10.3723 1.77296 -5.91721 -0.0 0.0 0.0 -0.0 0.0 0.0 6.93399e-14 3.1136e-14 1.39853e-13 79.6807 8.5222 0.998727 -12.609 -5.88479 22.7953 -0.138571 10.5527 1.50025 -2.77641e-09 1.04484e-09 1.07999e-09 -4.78727e-09 1.8136e-09 1.89937e-09 -2.77641e-09 1.04484e-09 1.07998e-09 7.73091 5.47488 0.417314 -2.77641e-09 1.04484e-09 1.07999e-09 2.90554 0.965183 0.102902 -2.77641e-09 1.04484e-09 1.07999e-09 10.2786 0.731801 0.0259123 -2.77642e-09 1.04484e-09 1.08e-09 2.22167 -0.733487 -0.20892 6.93608e-14 3.11468e-14 1.39609e-13 -83.5423 9.87766 -0.946408 11.892 -5.37318 -21.4009 0.132352 10.3192 -1.4663 -2.3752e-09 -5.91251e-10 -1.45313e-09 -4.11737e-09 -9.93251e-10 -2.48607e-09 -2.37521e-09 -5.91253e-10 -1.45312e-09 -7.73091 5.47488 -0.417314 -2.3752e-09 -5.91244e-10 -1.45312e-09 -2.90554 0.965183 -0.102902 -2.3752e-09 -5.9125e-10 -1.45312e-09 -10.2786 0.731801 -0.0259123 -2.3752e-09 -5.91245e-10 -1.45313e-09 -2.22167 -0.733487 0.20892 -2.03217e-16 0.0 -3.88251e-19 5.41902 4.19992 6.22896 -0.167647 29.2875 0.485579 0.123672 -2.32015 5.86519 2.03217e-16 0.0 3.88251e-19 -1.57393 -29.4084 -4.97094 0.129649 23.4403 -0.12153 0.278157 1.95651 -4.98246
15.464 83.5496 13.3697 0.0676 -51.6785 2.6842 2.38474 4.9865 4.12206 1.55963 -2.98219 1.17317 -10.7573 1.59939 -4.1062 10.2958 1.92126 -5.87091 -0.0 0.0 0.0 -0.0 0.0 0.0 4.45119e-14 -2.78997e-15 5.7906e-13 79.864 7.986 0.742623 -12.4652 -5.78023 22.5139 -0.145057 10.7937 1.53535 -5.30334e-09 3.55683e-09 1.80461e-09 -9.14899e-09 6.16499e-09 3.17772e-09 -5.30334e-09 3.55683e-09 1.8046e-09 7.73091 5.47488 0.417314 -5.30334e-09 3.55683e-09 1.80461e-09 2.90554 0.965183 0.102902 -5.30333e-09 3.55683e-09 1.80461e-09 10.2786 0.731801 0.0259123 -5.30335e-09 3.55683e-09 1.80461e-09 2.22167 -0.733487 -0.20892 4.45465e-14 -2.77541e-15 5.78811e-13 -83.5724 9.56011 -0.928699 11.8331 -5.33226 -21.2872 0.13519 10.4255 -1.48176 -4.75672e-09 1.97194e-09 -6.25402e-10 -8.2266e-09 3.47625e-09 -1.03114e-09 -4.75672e-09 1.97194e-09 -6.25399e-10 -7.73091 5.47488 -0.417314 -4.75672e-09 1.97194e-09 -6.25396e-10 -2.90554 0.965183 -0.102902 -4.75672e-09 1.97194e-09 -6.25398e-10 -10.2786 0.731801 -0.0259123 -4.75672e-09 1.97194e-09 -6.25408e-10 -2.22167 -0.733487 0.20892 -2.03217e-16 0.0 -3.88251e-19 5.06147 3.02993 5.75505 -0.202176 31.7461 0.511484 0.00189591 -0.282233 6.66035 2.03217e-16 0.0 3.88251e-19 -1.72923 -28.9558 -4.49209 0.13206 23.7444 -0.0958075 0.229472 1.66342 -5.52255
14.9271 83.562 14.1915 0.2308 -51.8774 2.3176 2.09189 5.1001 4.04907 1.4826 -2.85843 1.13645 -10.7314 1.42018 -4.07183 10.3014 1.96838 -5.78079 -0.0 0.0 0.0 -0.0 0.0 0.0 3.46062e-14 -1.12307e-14 6.88689e-13 80.0729 7.63003 0.59712 -12.3441 -5.69222 22.2791 -0.147529 10.8753 1.54728 -5.26305e-09 3.57651e-09 1.75719e-09 -9.07959e-09 6.1981e-09 3.09431e-09 -5.26304e-09 3.57651e-09 1.75719e-09 7.73091 5.47488 0.417314 -5.26305e-09 3.57651e-09 1.7572e-09 2.90554 0.965183 0.102902 -5.26304e-09 3.57651e-09 1.75719e-09 10.2786 0.731801 0.0259123 -5.26305e-09 3.57651e-09 1.7572e-09 2.22167 -0.733487 -0.20892 3.46049e-14 -1.12195e-14 6.88427e-13 -83.5582 9.40282 -0.949451 11.7754 -5.29232 -21.1759 0.132519 10.3263 -1.46734 -4.67078e-09 2.08179e-09 -5.46755e-10 -8.07678e-09 3.66411e-09 -8.96715e-10 -4.67078e-09 2.08179e-09 -5.46753e-10 -7.73091 5.47488 -0.417314 -4.67078e-09 2.08179e-09 -5.46751e-10 -2.90554 0.965183 -0.102902 -4.67078e-09 2.08179e-09 -5.4675e-10 -10.2786 0.731801 -0.0259123 -4.67077e-09 2.08179e-09 -5.46759e-10 -2.22167 -0.733487 0.20892 -2.03217e-16 0.0 -3.88251e-19 4.56651 1.81212 5.4895 -0.240875 34.2464 0.546395 -0.223972 2.15538 7.43039 2.03217e-16 0.0 3.88251e-19 -1.95656 -28.3852 -4.05999 0.1339 24.0082 -0.0695699 0.155545 1.18586 -6.09757
